<svg xmlns="http://www.w3.org/2000/svg" xmlns:xlink="http://www.w3.org/1999/xlink" width="1200" zoomAndPan="magnify" viewBox="0 0 900 899.99999" height="1200" preserveAspectRatio="xMidYMid meet" version="1.0"><defs><clipPath id="acdbd8bd49"><path d="M 18.972656 14.25 L 878.472656 14.25 L 878.472656 873.75 L 18.972656 873.75 Z M 18.972656 14.25 " clip-rule="nonzero"/></clipPath><clipPath id="d375b73518"><path d="M 12.75 9 L 885 9 L 885 881.25 L 12.75 881.25 Z M 12.75 9 " clip-rule="nonzero"/></clipPath><clipPath id="9cf515362f"><path d="M 442 389 L 678.949219 389 L 678.949219 626 L 442 626 Z M 442 389 " clip-rule="nonzero"/></clipPath><clipPath id="bc2a331db6"><path d="M 244 197.964844 L 510 197.964844 L 510 663 L 244 663 Z M 244 197.964844 " clip-rule="nonzero"/></clipPath></defs><g clip-path="url(#acdbd8bd49)"><path fill="#fadce0" d="M 878.613281 444.070312 C 878.613281 451.105469 878.441406 458.132812 878.09375 465.160156 C 877.75 472.1875 877.234375 479.199219 876.542969 486.199219 C 875.855469 493.199219 874.992188 500.179688 873.960938 507.136719 C 872.929688 514.097656 871.726562 521.023438 870.355469 527.925781 C 868.980469 534.824219 867.441406 541.683594 865.730469 548.507812 C 864.023438 555.332031 862.148438 562.109375 860.105469 568.839844 C 858.0625 575.570312 855.855469 582.25 853.488281 588.871094 C 851.117188 595.496094 848.585938 602.054688 845.894531 608.554688 C 843.203125 615.054688 840.351562 621.484375 837.34375 627.84375 C 834.339844 634.199219 831.175781 640.480469 827.859375 646.6875 C 824.542969 652.890625 821.078125 659.007812 817.460938 665.042969 C 813.84375 671.074219 810.082031 677.015625 806.175781 682.867188 C 802.265625 688.714844 798.21875 694.464844 794.027344 700.113281 C 789.835938 705.765625 785.511719 711.308594 781.046875 716.746094 C 776.585938 722.183594 771.992188 727.507812 767.269531 732.71875 C 762.542969 737.933594 757.695312 743.023438 752.722656 748 C 747.746094 752.972656 742.65625 757.820312 737.441406 762.546875 C 732.230469 767.269531 726.90625 771.863281 721.46875 776.324219 C 716.03125 780.789062 710.484375 785.113281 704.835938 789.304688 C 699.1875 793.496094 693.4375 797.542969 687.589844 801.453125 C 681.738281 805.359375 675.796875 809.121094 669.765625 812.738281 C 663.730469 816.355469 657.613281 819.820312 651.410156 823.136719 C 645.203125 826.453125 638.921875 829.617188 632.566406 832.625 C 626.207031 835.628906 619.777344 838.480469 613.277344 841.171875 C 606.777344 843.863281 600.21875 846.394531 593.59375 848.765625 C 586.972656 851.132812 580.292969 853.339844 573.5625 855.382812 C 566.832031 857.425781 560.054688 859.300781 553.230469 861.007812 C 546.40625 862.71875 539.546875 864.257812 532.648438 865.632812 C 525.746094 867.003906 518.820312 868.207031 511.859375 869.238281 C 504.902344 870.269531 497.921875 871.132812 490.921875 871.820312 C 483.921875 872.511719 476.910156 873.027344 469.882812 873.371094 C 462.855469 873.71875 455.828125 873.890625 448.792969 873.890625 C 441.757812 873.890625 434.726562 873.71875 427.703125 873.371094 C 420.675781 873.027344 413.664062 872.511719 406.664062 871.820312 C 399.664062 871.132812 392.683594 870.269531 385.726562 869.238281 C 378.765625 868.207031 371.839844 867.003906 364.9375 865.632812 C 358.039062 864.257812 351.179688 862.71875 344.355469 861.007812 C 337.53125 859.300781 330.753906 857.425781 324.023438 855.382812 C 317.292969 853.339844 310.613281 851.132812 303.992188 848.765625 C 297.367188 846.394531 290.804688 843.863281 284.308594 841.171875 C 277.808594 838.480469 271.378906 835.628906 265.019531 832.625 C 258.660156 829.617188 252.378906 826.453125 246.175781 823.136719 C 239.972656 819.820312 233.855469 816.355469 227.820312 812.738281 C 221.789062 809.121094 215.847656 805.359375 209.996094 801.453125 C 204.148438 797.542969 198.398438 793.496094 192.75 789.304688 C 187.097656 785.113281 181.554688 780.789062 176.117188 776.324219 C 170.679688 771.863281 165.355469 767.269531 160.144531 762.546875 C 154.929688 757.820312 149.839844 752.972656 144.863281 748 C 139.890625 743.023438 135.039062 737.933594 130.316406 732.71875 C 125.59375 727.507812 121 722.183594 116.539062 716.746094 C 112.074219 711.308594 107.75 705.765625 103.558594 700.113281 C 99.367188 694.464844 95.316406 688.714844 91.410156 682.867188 C 87.503906 677.015625 83.738281 671.074219 80.125 665.042969 C 76.507812 659.007812 73.042969 652.890625 69.726562 646.6875 C 66.410156 640.480469 63.246094 634.199219 60.238281 627.84375 C 57.230469 621.484375 54.382812 615.054688 51.691406 608.554688 C 49 602.054688 46.46875 595.496094 44.097656 588.871094 C 41.726562 582.25 39.523438 575.570312 37.480469 568.839844 C 35.4375 562.109375 33.5625 555.332031 31.855469 548.507812 C 30.144531 541.683594 28.605469 534.824219 27.230469 527.925781 C 25.859375 521.023438 24.65625 514.097656 23.625 507.136719 C 22.59375 500.179688 21.730469 493.199219 21.042969 486.199219 C 20.351562 479.199219 19.835938 472.1875 19.488281 465.160156 C 19.144531 458.132812 18.972656 451.105469 18.972656 444.070312 C 18.972656 437.035156 19.144531 430.007812 19.488281 422.980469 C 19.835938 415.953125 20.351562 408.941406 21.042969 401.941406 C 21.730469 394.941406 22.59375 387.960938 23.625 381.003906 C 24.65625 374.042969 25.859375 367.117188 27.230469 360.214844 C 28.605469 353.316406 30.144531 346.457031 31.855469 339.632812 C 33.5625 332.808594 35.4375 326.03125 37.480469 319.300781 C 39.523438 312.570312 41.726562 305.890625 44.097656 299.269531 C 46.46875 292.644531 49 286.085938 51.691406 279.585938 C 54.382812 273.085938 57.230469 266.65625 60.238281 260.296875 C 63.246094 253.941406 66.410156 247.65625 69.726562 241.453125 C 73.042969 235.25 76.507812 229.132812 80.125 223.097656 C 83.738281 217.066406 87.503906 211.125 91.410156 205.273438 C 95.316406 199.425781 99.367188 193.675781 103.558594 188.027344 C 107.75 182.375 112.074219 176.832031 116.539062 171.394531 C 121 165.957031 125.59375 160.632812 130.316406 155.421875 C 135.039062 150.207031 139.890625 145.117188 144.863281 140.140625 C 149.839844 135.167969 154.929688 130.320312 160.144531 125.59375 C 165.355469 120.871094 170.679688 116.277344 176.117188 111.816406 C 181.554688 107.351562 187.097656 103.027344 192.75 98.835938 C 198.398438 94.644531 204.148438 90.597656 209.996094 86.6875 C 215.847656 82.78125 221.789062 79.015625 227.820312 75.402344 C 233.855469 71.785156 239.972656 68.320312 246.175781 65.003906 C 252.378906 61.6875 258.660156 58.523438 265.019531 55.515625 C 271.378906 52.511719 277.808594 49.660156 284.308594 46.96875 C 290.804688 44.277344 297.367188 41.746094 303.992188 39.375 C 310.613281 37.003906 317.292969 34.800781 324.023438 32.757812 C 330.753906 30.714844 337.53125 28.839844 344.355469 27.132812 C 351.179688 25.421875 358.039062 23.882812 364.9375 22.507812 C 371.839844 21.136719 378.765625 19.933594 385.726562 18.902344 C 392.683594 17.871094 399.664062 17.007812 406.664062 16.320312 C 413.664062 15.628906 420.675781 15.113281 427.703125 14.769531 C 434.726562 14.421875 441.757812 14.25 448.792969 14.25 C 455.828125 14.25 462.855469 14.421875 469.882812 14.769531 C 476.910156 15.113281 483.921875 15.628906 490.921875 16.320312 C 497.921875 17.007812 504.902344 17.871094 511.859375 18.902344 C 518.820312 19.933594 525.746094 21.136719 532.648438 22.507812 C 539.546875 23.882812 546.40625 25.421875 553.230469 27.132812 C 560.054688 28.839844 566.832031 30.714844 573.5625 32.757812 C 580.292969 34.800781 586.972656 37.003906 593.59375 39.375 C 600.21875 41.746094 606.777344 44.277344 613.277344 46.96875 C 619.777344 49.660156 626.207031 52.511719 632.566406 55.515625 C 638.921875 58.523438 645.203125 61.6875 651.410156 65.003906 C 657.613281 68.320312 663.730469 71.785156 669.765625 75.402344 C 675.796875 79.015625 681.738281 82.78125 687.589844 86.6875 C 693.4375 90.597656 699.1875 94.644531 704.835938 98.835938 C 710.484375 103.027344 716.03125 107.351562 721.46875 111.816406 C 726.90625 116.277344 732.230469 120.871094 737.441406 125.59375 C 742.65625 130.320312 747.746094 135.167969 752.722656 140.140625 C 757.695312 145.117188 762.542969 150.207031 767.269531 155.421875 C 771.992188 160.632812 776.585938 165.957031 781.046875 171.394531 C 785.511719 176.832031 789.835938 182.375 794.027344 188.027344 C 798.21875 193.675781 802.265625 199.425781 806.175781 205.273438 C 810.082031 211.125 813.84375 217.066406 817.460938 223.097656 C 821.078125 229.132812 824.542969 235.25 827.859375 241.453125 C 831.175781 247.65625 834.339844 253.9375 837.34375 260.296875 C 840.351562 266.65625 843.203125 273.085938 845.894531 279.585938 C 848.585938 286.085938 851.117188 292.644531 853.488281 299.269531 C 855.855469 305.890625 858.0625 312.570312 860.105469 319.300781 C 862.148438 326.03125 864.023438 332.808594 865.730469 339.632812 C 867.441406 346.457031 868.980469 353.316406 870.355469 360.214844 C 871.726562 367.117188 872.929688 374.042969 873.960938 381.003906 C 874.992188 387.960938 875.855469 394.941406 876.542969 401.941406 C 877.234375 408.941406 877.75 415.953125 878.09375 422.980469 C 878.441406 430.007812 878.613281 437.035156 878.613281 444.070312 Z M 878.613281 444.070312 " fill-opacity="1" fill-rule="nonzero"/></g><g clip-path="url(#d375b73518)"><path fill="#000000" d="M 448.875 881.25 C 208.46875 881.25 12.75 685.53125 12.75 445.125 C 12.75 204.71875 208.46875 9 448.875 9 C 689.28125 9 885 204.71875 885 445.125 C 885 685.53125 689.28125 881.25 448.875 881.25 Z M 448.875 15.445312 C 211.90625 15.445312 19.195312 208.15625 19.195312 445.125 C 19.195312 682.09375 211.90625 874.804688 448.875 874.804688 C 685.84375 874.804688 878.554688 682.09375 878.554688 445.125 C 878.554688 208.15625 685.84375 15.445312 448.875 15.445312 Z M 448.875 15.445312 " fill-opacity="1" fill-rule="nonzero"/></g><g clip-path="url(#9cf515362f)"><path fill="#000000" d="M 671.125 463.296875 L 605.007812 463.296875 L 605.007812 397.15625 C 605.011719 396.675781 604.964844 396.199219 604.871094 395.726562 C 604.777344 395.253906 604.640625 394.796875 604.457031 394.351562 C 604.269531 393.90625 604.046875 393.484375 603.777344 393.082031 C 603.511719 392.683594 603.207031 392.3125 602.867188 391.972656 C 602.527344 391.632812 602.15625 391.328125 601.757812 391.058594 C 601.355469 390.792969 600.933594 390.566406 600.488281 390.382812 C 600.042969 390.199219 599.585938 390.0625 599.113281 389.96875 C 598.640625 389.875 598.164062 389.828125 597.683594 389.828125 L 523.425781 389.828125 C 522.945312 389.828125 522.46875 389.875 521.996094 389.96875 C 521.523438 390.0625 521.0625 390.199219 520.621094 390.382812 C 520.175781 390.566406 519.753906 390.792969 519.351562 391.058594 C 518.953125 391.328125 518.582031 391.632812 518.242188 391.972656 C 517.902344 392.3125 517.597656 392.683594 517.328125 393.082031 C 517.0625 393.484375 516.835938 393.90625 516.652344 394.351562 C 516.46875 394.796875 516.332031 395.253906 516.238281 395.726562 C 516.144531 396.199219 516.097656 396.675781 516.097656 397.15625 L 516.097656 463.296875 L 449.984375 463.296875 C 449.503906 463.296875 449.023438 463.339844 448.554688 463.433594 C 448.082031 463.527344 447.621094 463.667969 447.179688 463.851562 C 446.734375 464.035156 446.3125 464.257812 445.910156 464.527344 C 445.511719 464.792969 445.140625 465.097656 444.800781 465.4375 C 444.460938 465.777344 444.15625 466.148438 443.886719 466.550781 C 443.621094 466.949219 443.394531 467.371094 443.210938 467.816406 C 443.027344 468.261719 442.890625 468.722656 442.796875 469.195312 C 442.703125 469.664062 442.65625 470.144531 442.65625 470.625 L 442.65625 544.894531 C 442.65625 545.375 442.703125 545.851562 442.796875 546.324219 C 442.890625 546.796875 443.03125 547.253906 443.214844 547.699219 C 443.398438 548.144531 443.625 548.566406 443.890625 548.964844 C 444.160156 549.367188 444.464844 549.734375 444.804688 550.078125 C 445.144531 550.417969 445.511719 550.71875 445.914062 550.988281 C 446.3125 551.253906 446.734375 551.480469 447.179688 551.664062 C 447.625 551.847656 448.082031 551.988281 448.554688 552.082031 C 449.027344 552.175781 449.503906 552.222656 449.984375 552.222656 L 516.101562 552.222656 L 516.101562 618.375 C 516.097656 618.855469 516.144531 619.335938 516.234375 619.808594 C 516.328125 620.28125 516.464844 620.738281 516.648438 621.1875 C 516.832031 621.632812 517.058594 622.054688 517.324219 622.457031 C 517.59375 622.855469 517.894531 623.226562 518.238281 623.570312 C 518.578125 623.910156 518.949219 624.214844 519.347656 624.484375 C 519.75 624.75 520.171875 624.976562 520.617188 625.160156 C 521.0625 625.34375 521.519531 625.484375 521.992188 625.578125 C 522.464844 625.671875 522.941406 625.71875 523.425781 625.714844 L 597.683594 625.714844 C 598.164062 625.714844 598.640625 625.667969 599.113281 625.574219 C 599.585938 625.480469 600.042969 625.34375 600.488281 625.160156 C 600.929688 624.972656 601.351562 624.75 601.753906 624.480469 C 602.152344 624.214844 602.523438 623.910156 602.863281 623.570312 C 603.203125 623.230469 603.507812 622.859375 603.773438 622.460938 C 604.042969 622.058594 604.265625 621.636719 604.453125 621.191406 C 604.636719 620.75 604.773438 620.289062 604.867188 619.816406 C 604.960938 619.347656 605.007812 618.871094 605.007812 618.386719 L 605.007812 552.222656 L 671.125 552.222656 C 671.605469 552.222656 672.082031 552.175781 672.554688 552.082031 C 673.027344 551.988281 673.484375 551.847656 673.929688 551.664062 C 674.375 551.480469 674.796875 551.253906 675.195312 550.988281 C 675.59375 550.71875 675.964844 550.417969 676.304688 550.078125 C 676.644531 549.734375 676.949219 549.367188 677.214844 548.964844 C 677.484375 548.566406 677.710938 548.144531 677.894531 547.699219 C 678.078125 547.253906 678.214844 546.796875 678.308594 546.324219 C 678.402344 545.851562 678.449219 545.375 678.449219 544.894531 L 678.449219 470.625 C 678.453125 470.144531 678.40625 469.664062 678.3125 469.195312 C 678.21875 468.722656 678.082031 468.261719 677.898438 467.816406 C 677.714844 467.371094 677.488281 466.949219 677.21875 466.550781 C 676.953125 466.148438 676.648438 465.777344 676.308594 465.4375 C 675.96875 465.097656 675.597656 464.792969 675.199219 464.527344 C 674.796875 464.257812 674.375 464.035156 673.929688 463.851562 C 673.484375 463.667969 673.027344 463.527344 672.554688 463.433594 C 672.082031 463.339844 671.605469 463.296875 671.125 463.296875 Z M 663.800781 537.566406 L 597.683594 537.566406 C 597.203125 537.566406 596.726562 537.613281 596.253906 537.707031 C 595.78125 537.800781 595.324219 537.941406 594.878906 538.125 C 594.4375 538.308594 594.015625 538.535156 593.613281 538.800781 C 593.214844 539.070312 592.84375 539.371094 592.503906 539.714844 C 592.164062 540.054688 591.859375 540.421875 591.59375 540.824219 C 591.324219 541.222656 591.101562 541.644531 590.914062 542.089844 C 590.730469 542.535156 590.59375 542.992188 590.5 543.464844 C 590.40625 543.9375 590.359375 544.414062 590.359375 544.894531 L 590.359375 611.046875 L 530.75 611.046875 L 530.75 544.894531 C 530.75 544.414062 530.703125 543.9375 530.609375 543.464844 C 530.515625 542.992188 530.375 542.535156 530.191406 542.089844 C 530.007812 541.644531 529.78125 541.222656 529.515625 540.824219 C 529.25 540.421875 528.945312 540.054688 528.605469 539.714844 C 528.265625 539.371094 527.894531 539.070312 527.496094 538.800781 C 527.09375 538.535156 526.671875 538.308594 526.226562 538.125 C 525.785156 537.941406 525.324219 537.800781 524.855469 537.707031 C 524.382812 537.613281 523.90625 537.566406 523.425781 537.566406 L 457.308594 537.566406 L 457.308594 477.953125 L 523.425781 477.953125 C 523.90625 477.953125 524.382812 477.90625 524.855469 477.8125 C 525.324219 477.71875 525.785156 477.578125 526.226562 477.394531 C 526.671875 477.210938 527.09375 476.984375 527.496094 476.71875 C 527.894531 476.449219 528.265625 476.144531 528.605469 475.804688 C 528.945312 475.464844 529.25 475.09375 529.515625 474.695312 C 529.78125 474.296875 530.007812 473.871094 530.191406 473.429688 C 530.375 472.984375 530.515625 472.527344 530.609375 472.054688 C 530.703125 471.582031 530.75 471.105469 530.75 470.625 L 530.75 404.484375 L 590.359375 404.484375 L 590.359375 470.625 C 590.359375 471.105469 590.40625 471.582031 590.5 472.054688 C 590.59375 472.527344 590.730469 472.984375 590.914062 473.429688 C 591.101562 473.871094 591.324219 474.296875 591.59375 474.695312 C 591.859375 475.09375 592.164062 475.464844 592.503906 475.804688 C 592.84375 476.144531 593.214844 476.449219 593.613281 476.71875 C 594.015625 476.984375 594.4375 477.210938 594.878906 477.394531 C 595.324219 477.578125 595.78125 477.71875 596.253906 477.8125 C 596.726562 477.90625 597.203125 477.953125 597.683594 477.953125 L 663.800781 477.953125 Z M 663.800781 537.566406 " fill-opacity="1" fill-rule="nonzero"/></g><g clip-path="url(#bc2a331db6)"><path fill="#000000" d="M 479.230469 629.65625 C 421.753906 661.109375 349.195312 650.648438 302.804688 604.203125 C 301.328125 602.730469 299.878906 601.230469 298.464844 599.699219 C 297.046875 598.171875 295.664062 596.609375 294.316406 595.019531 C 292.964844 593.433594 291.648438 591.816406 290.367188 590.171875 C 289.085938 588.523438 287.839844 586.855469 286.628906 585.15625 C 285.417969 583.460938 284.246094 581.738281 283.105469 579.988281 C 281.96875 578.242188 280.867188 576.472656 279.804688 574.679688 C 278.742188 572.886719 277.714844 571.070312 276.730469 569.234375 C 275.742188 567.394531 274.796875 565.539062 273.886719 563.660156 C 272.980469 561.785156 272.113281 559.890625 271.285156 557.976562 C 270.457031 556.0625 269.667969 554.132812 268.921875 552.183594 C 268.175781 550.238281 267.46875 548.277344 266.804688 546.300781 C 266.144531 544.320312 265.519531 542.332031 264.941406 540.328125 C 264.363281 538.324219 263.824219 536.3125 263.332031 534.285156 C 262.835938 532.261719 262.382812 530.226562 261.976562 528.179688 C 261.566406 526.136719 261.203125 524.082031 260.878906 522.023438 C 260.558594 519.960938 260.28125 517.894531 260.046875 515.824219 C 259.8125 513.75 259.621094 511.675781 259.472656 509.59375 C 259.328125 507.515625 259.222656 505.433594 259.164062 503.347656 C 259.105469 501.265625 259.089844 499.179688 259.121094 497.09375 C 259.148438 495.007812 259.222656 492.925781 259.339844 490.84375 C 259.457031 488.761719 259.617188 486.683594 259.824219 484.609375 C 260.027344 482.53125 260.277344 480.460938 260.570312 478.398438 C 260.863281 476.332031 261.199219 474.277344 261.578125 472.226562 C 261.957031 470.175781 262.378906 468.132812 262.84375 466.101562 C 263.308594 464.066406 263.816406 462.046875 264.367188 460.035156 C 264.921875 458.023438 265.511719 456.023438 266.148438 454.039062 C 266.785156 452.054688 267.460938 450.082031 268.179688 448.125 C 268.898438 446.167969 269.660156 444.226562 270.460938 442.300781 C 271.257812 440.375 272.101562 438.464844 272.980469 436.578125 C 273.863281 434.6875 274.785156 432.816406 275.746094 430.964844 C 276.703125 429.113281 277.703125 427.285156 278.742188 425.476562 C 279.777344 423.667969 280.855469 421.882812 281.96875 420.117188 L 407.960938 218.820312 L 496.238281 359.78125 C 496.496094 360.1875 496.789062 360.566406 497.117188 360.917969 C 497.449219 361.265625 497.808594 361.582031 498.199219 361.859375 C 498.59375 362.140625 499.007812 362.378906 499.445312 362.574219 C 499.886719 362.773438 500.339844 362.925781 500.808594 363.03125 C 501.277344 363.140625 501.75 363.199219 502.234375 363.214844 C 502.714844 363.226562 503.191406 363.195312 503.664062 363.113281 C 504.140625 363.035156 504.601562 362.910156 505.050781 362.738281 C 505.5 362.566406 505.929688 362.355469 506.335938 362.097656 C 506.746094 361.84375 507.125 361.550781 507.472656 361.21875 C 507.824219 360.890625 508.136719 360.527344 508.417969 360.136719 C 508.695312 359.746094 508.933594 359.328125 509.128906 358.890625 C 509.328125 358.449219 509.480469 357.996094 509.585938 357.527344 C 509.695312 357.058594 509.753906 356.582031 509.769531 356.101562 C 509.78125 355.621094 509.75 355.144531 509.667969 354.667969 C 509.589844 354.195312 509.464844 353.734375 509.292969 353.285156 C 509.121094 352.832031 508.910156 352.40625 508.652344 351.996094 L 414.171875 201.136719 C 413.996094 200.890625 413.808594 200.65625 413.605469 200.433594 C 413.402344 200.207031 413.183594 199.996094 412.957031 199.800781 C 412.726562 199.601562 412.488281 199.417969 412.238281 199.246094 C 411.988281 199.078125 411.726562 198.921875 411.457031 198.785156 C 411.1875 198.644531 410.914062 198.523438 410.628906 198.417969 C 410.34375 198.3125 410.054688 198.222656 409.761719 198.152344 C 409.46875 198.082031 409.171875 198.027344 408.871094 197.992188 C 408.570312 197.953125 408.269531 197.9375 407.964844 197.9375 C 407.664062 197.9375 407.363281 197.953125 407.0625 197.992188 C 406.761719 198.027344 406.464844 198.082031 406.167969 198.152344 C 405.875 198.222656 405.585938 198.3125 405.304688 198.417969 C 405.019531 198.523438 404.742188 198.644531 404.472656 198.785156 C 404.207031 198.921875 403.945312 199.078125 403.695312 199.246094 C 403.445312 199.417969 403.203125 199.601562 402.976562 199.800781 C 402.746094 199.996094 402.53125 200.207031 402.328125 200.433594 C 402.125 200.65625 401.933594 200.890625 401.757812 201.136719 L 269.511719 412.335938 C 268.332031 414.234375 267.191406 416.15625 266.089844 418.101562 C 264.984375 420.046875 263.925781 422.011719 262.902344 424 C 261.882812 425.992188 260.902344 428 259.960938 430.027344 C 259.023438 432.058594 258.125 434.105469 257.269531 436.171875 C 256.414062 438.238281 255.601562 440.320312 254.832031 442.417969 C 254.0625 444.515625 253.335938 446.632812 252.652344 448.761719 C 251.96875 450.890625 251.332031 453.03125 250.734375 455.1875 C 250.140625 457.339844 249.589844 459.507812 249.082031 461.683594 C 248.574219 463.863281 248.113281 466.050781 247.695312 468.246094 C 247.28125 470.445312 246.910156 472.648438 246.582031 474.859375 C 246.253906 477.070312 245.976562 479.289062 245.738281 481.511719 C 245.503906 483.738281 245.3125 485.964844 245.167969 488.195312 C 245.023438 490.425781 244.925781 492.660156 244.875 494.894531 C 244.820312 497.128906 244.8125 499.367188 244.851562 501.601562 C 244.890625 503.835938 244.976562 506.070312 245.109375 508.304688 C 245.238281 510.535156 245.414062 512.765625 245.636719 514.988281 C 245.859375 517.214844 246.125 519.433594 246.4375 521.648438 C 246.75 523.859375 247.109375 526.066406 247.511719 528.265625 C 247.917969 530.464844 248.363281 532.65625 248.859375 534.835938 C 249.351562 537.015625 249.886719 539.1875 250.46875 541.347656 C 251.050781 543.503906 251.679688 545.652344 252.347656 547.785156 C 253.019531 549.917969 253.730469 552.035156 254.488281 554.140625 C 255.246094 556.242188 256.046875 558.332031 256.886719 560.402344 C 257.730469 562.472656 258.613281 564.523438 259.542969 566.558594 C 260.46875 568.59375 261.4375 570.609375 262.445312 572.605469 C 263.453125 574.597656 264.503906 576.574219 265.59375 578.523438 C 266.683594 580.476562 267.816406 582.40625 268.984375 584.3125 C 270.152344 586.21875 271.359375 588.097656 272.605469 589.953125 C 273.855469 591.808594 275.136719 593.640625 276.457031 595.441406 C 277.78125 597.246094 279.136719 599.023438 280.53125 600.769531 C 281.925781 602.515625 283.355469 604.234375 284.820312 605.925781 C 286.285156 607.613281 287.785156 609.273438 289.316406 610.898438 C 290.847656 612.527344 292.414062 614.121094 294.011719 615.6875 C 295.609375 617.25 297.238281 618.777344 298.898438 620.277344 C 300.5625 621.773438 302.25 623.234375 303.972656 624.660156 C 305.691406 626.089844 307.441406 627.480469 309.21875 628.835938 C 310.996094 630.191406 312.800781 631.507812 314.632812 632.789062 C 316.464844 634.070312 318.324219 635.3125 320.207031 636.519531 C 322.089844 637.722656 323.996094 638.890625 325.925781 640.015625 C 327.855469 641.144531 329.808594 642.230469 331.785156 643.277344 C 333.757812 644.324219 335.753906 645.332031 337.769531 646.296875 C 339.789062 647.261719 341.824219 648.183594 343.875 649.066406 C 345.929688 649.945312 348.003906 650.785156 350.089844 651.582031 C 352.179688 652.378906 354.28125 653.132812 356.402344 653.84375 C 358.523438 654.550781 360.65625 655.21875 362.800781 655.839844 C 364.949219 656.464844 367.105469 657.042969 369.277344 657.574219 C 371.449219 658.109375 373.628906 658.597656 375.820312 659.042969 C 378.007812 659.488281 380.207031 659.886719 382.414062 660.242188 C 384.621094 660.597656 386.835938 660.90625 389.054688 661.167969 C 391.273438 661.433594 393.5 661.652344 395.726562 661.824219 C 397.957031 661.996094 400.1875 662.121094 402.421875 662.203125 C 404.652344 662.285156 406.886719 662.320312 409.125 662.308594 C 411.359375 662.296875 413.59375 662.242188 415.824219 662.136719 C 418.058594 662.035156 420.289062 661.886719 422.515625 661.695312 C 424.742188 661.5 426.964844 661.261719 429.179688 660.976562 C 431.398438 660.691406 433.609375 660.359375 435.8125 659.984375 C 438.015625 659.609375 440.207031 659.1875 442.394531 658.722656 C 444.582031 658.253906 446.757812 657.746094 448.921875 657.191406 C 451.085938 656.636719 453.238281 656.035156 455.378906 655.390625 C 457.519531 654.75 459.648438 654.0625 461.761719 653.332031 C 463.871094 652.601562 465.96875 651.828125 468.050781 651.011719 C 470.128906 650.195312 472.195312 649.335938 474.238281 648.433594 C 476.285156 647.53125 478.3125 646.589844 480.316406 645.605469 C 482.324219 644.621094 484.3125 643.59375 486.277344 642.527344 C 486.683594 642.289062 487.066406 642.015625 487.417969 641.703125 C 487.773438 641.386719 488.097656 641.042969 488.382812 640.667969 C 488.671875 640.292969 488.921875 639.894531 489.132812 639.472656 C 489.34375 639.046875 489.511719 638.609375 489.640625 638.152344 C 489.765625 637.695312 489.847656 637.234375 489.882812 636.761719 C 489.917969 636.289062 489.910156 635.820312 489.855469 635.347656 C 489.800781 634.878906 489.703125 634.417969 489.558594 633.96875 C 489.414062 633.519531 489.230469 633.085938 489.003906 632.671875 C 488.777344 632.253906 488.511719 631.867188 488.210938 631.503906 C 487.90625 631.136719 487.574219 630.808594 487.207031 630.507812 C 486.839844 630.207031 486.449219 629.949219 486.03125 629.722656 C 485.613281 629.5 485.179688 629.320312 484.730469 629.179688 C 484.277344 629.039062 483.816406 628.945312 483.34375 628.894531 C 482.875 628.84375 482.40625 628.839844 481.933594 628.882812 C 481.460938 628.921875 481 629.007812 480.546875 629.136719 C 480.089844 629.265625 479.652344 629.441406 479.230469 629.65625 Z M 479.230469 629.65625 " fill-opacity="1" fill-rule="nonzero"/></g></svg>